<svg width="20" height="20" viewBox="0 0 20 20" fill="none" xmlns="http://www.w3.org/2000/svg">
<path d="M8.66667 0H0.666667C0.298667 0 0 0.298667 0 0.666667V8.66667C0 9.03467 0.298667 9.33333 0.666667 9.33333H8.66667C9.03467 9.33333 9.33333 9.03467 9.33333 8.66667V0.666667C9.33333 0.298667 9.03467 0 8.66667 0ZM8 8H1.33333V1.33333H8V8Z" fill="#8F8F8F"/>
<path d="M19.3334 0H11.3334C10.9654 0 10.6667 0.298667 10.6667 0.666667V8.66667C10.6667 9.03467 10.9654 9.33333 11.3334 9.33333H19.3334C19.7014 9.33333 20.0001 9.03467 20.0001 8.66667V0.666667C20.0001 0.298667 19.7014 0 19.3334 0ZM18.6667 8H12.0001V1.33333H18.6667V8Z" fill="#8F8F8F"/>
<path d="M8.66667 10.6665H0.666667C0.298667 10.6665 0 10.9652 0 11.3332V19.3332C0 19.7012 0.298667 19.9998 0.666667 19.9998H8.66667C9.03467 19.9998 9.33333 19.7012 9.33333 19.3332V11.3332C9.33333 10.9652 9.03467 10.6665 8.66667 10.6665ZM8 18.6665H1.33333V11.9998H8V18.6665Z" fill="#8F8F8F"/>
<path d="M19.3334 10.6665H11.3334C10.9654 10.6665 10.6667 10.9652 10.6667 11.3332V19.3332C10.6667 19.7012 10.9654 19.9998 11.3334 19.9998H19.3334C19.7014 19.9998 20.0001 19.7012 20.0001 19.3332V11.3332C20.0001 10.9652 19.7014 10.6665 19.3334 10.6665ZM18.6667 18.6665H12.0001V11.9998H18.6667V18.6665Z" fill="#8F8F8F"/>
</svg>
