<svg width="20" height="20" viewBox="0 0 20 20" fill="none" xmlns="http://www.w3.org/2000/svg">
<g clip-path="url(#clip0)">
<path d="M12.623 1.36248C12.4347 1.2598 12.2054 1.26819 12.0252 1.38431L5.13958 5.82369H0.585876C0.262316 5.82369 0 6.0821 0 6.40566V13.4362C0 13.7597 0.262316 14.022 0.585876 14.022H5.13454L12.0175 18.6107C12.1975 18.7307 12.4287 18.7415 12.6189 18.6397C12.8094 18.5378 12.9283 18.3392 12.9283 18.1232V1.87684C12.9283 1.66245 12.8112 1.46517 12.623 1.36248ZM1.17175 6.99154H4.72606V12.8542H1.17175V6.99154ZM11.7566 17.0284L5.89782 13.1226V6.72516L11.7566 2.95118V17.0284Z" fill="#113E48"/>
<path d="M18.5584 5.17564L18.2958 4.78143C18.1164 4.51212 17.7526 4.43924 17.4833 4.61867C17.214 4.79807 17.1412 5.16178 17.3206 5.43109L17.5834 5.82554C19.2426 8.31328 19.2424 11.5288 17.5828 14.0174L17.3207 14.4105C17.1412 14.6797 17.214 15.0434 17.4832 15.2229C17.752 15.402 18.1159 15.3301 18.2956 15.0604L18.5577 14.6674C20.4806 11.7839 20.4808 8.05811 18.5584 5.17564Z" fill="#113E48"/>
<path d="M15.6081 6.47499L15.3452 6.08065C15.1658 5.81142 14.8021 5.7387 14.5327 5.91813C14.2635 6.09761 14.1908 6.46136 14.3703 6.73059L14.6331 7.12496C15.7654 8.82342 15.7654 11.0184 14.6331 12.7168L14.3703 13.1112C14.1908 13.3804 14.2635 13.7442 14.5327 13.9236C14.8016 14.1028 15.1654 14.0308 15.3452 13.7611L15.6081 13.3668C17.0036 11.2735 17.0036 8.56829 15.6081 6.47499Z" fill="#113E48"/>
</g>
<defs>
<clipPath id="clip0">
<rect width="20" height="20" fill="white"/>
</clipPath>
</defs>
</svg>
