<svg width="20" height="20" viewBox="0 0 20 20" fill="none" xmlns="http://www.w3.org/2000/svg">
<path d="M15.4688 0H4.53125C3.96164 0.000620379 3.41554 0.227172 3.01276 0.629948C2.60998 1.03272 2.38343 1.57883 2.38281 2.14844V17.8516C2.38343 18.4212 2.60998 18.9673 3.01276 19.3701C3.41554 19.7728 3.96164 19.9994 4.53125 20H15.4688C16.0384 19.9994 16.5845 19.7728 16.9872 19.3701C17.39 18.9673 17.6166 18.4212 17.6172 17.8516V2.14844C17.6166 1.57883 17.39 1.03272 16.9872 0.629948C16.5845 0.227172 16.0384 0.000620379 15.4688 0V0ZM16.4453 17.8516C16.4453 18.1106 16.3424 18.359 16.1593 18.5421C15.9761 18.7252 15.7278 18.8281 15.4688 18.8281H4.53125C4.27225 18.8281 4.02386 18.7252 3.84072 18.5421C3.65757 18.359 3.55469 18.1106 3.55469 17.8516V2.14844C3.55469 1.88944 3.65757 1.64104 3.84072 1.4579C4.02386 1.27476 4.27225 1.17188 4.53125 1.17188H15.4688C15.7278 1.17188 15.9761 1.27476 16.1593 1.4579C16.3424 1.64104 16.4453 1.88944 16.4453 2.14844V17.8516Z" fill="#113E48"/>
<path d="M8.32032 14.6501L8.32008 14.6503C8.37339 14.7163 8.40123 14.7992 8.39856 14.884C8.39589 14.9688 8.36288 15.0498 8.30553 15.1123L8.3032 15.1149L8.30312 15.1148C8.27011 15.1461 8.23108 15.1704 8.18839 15.1862C8.146 15.2019 8.10089 15.2088 8.05576 15.2067M8.32032 14.6501L8.05576 15.2067M8.32032 14.6501L8.31643 14.6462C8.2449 14.5751 8.16023 14.5186 8.06714 14.4797L6.16757 13.5785M8.32032 14.6501L6.16757 13.5785M8.05576 15.2067C8.05608 15.2067 8.05641 15.2067 8.05673 15.2067L8.05736 15.1567L8.05478 15.2066C8.05511 15.2066 8.05543 15.2066 8.05576 15.2067ZM6.16757 13.5785L8.06581 12.6745C8.15964 12.6345 8.24454 12.5761 8.31553 12.5028L8.31559 12.5029L8.31751 12.5006C8.37098 12.4385 8.39988 12.3591 8.39878 12.2772M6.16757 13.5785L8.05586 11.9399C8.05568 11.9399 8.0555 11.9399 8.05532 11.9399C8.1006 11.9377 8.14586 11.9446 8.18839 11.9603C8.23108 11.9761 8.27011 12.0004 8.30312 12.0318L8.30449 12.0331L8.30447 12.0331C8.33605 12.0654 8.3607 12.1039 8.37691 12.1461C8.39294 12.1879 8.40038 12.2325 8.39878 12.2772M8.39878 12.2772C8.39876 12.2776 8.39874 12.2781 8.39872 12.2786L8.34876 12.2766L8.39875 12.2757C8.39876 12.2762 8.39877 12.2767 8.39878 12.2772ZM7.75394 12.0337L5.32101 13.1664L5.32084 13.1661L5.31549 13.1694L5.29383 13.1831C5.06659 13.2906 4.92766 13.423 4.92766 13.5887C4.92766 13.7546 5.06156 13.8841 5.2813 13.9857L5.28125 13.9858L5.28441 13.987C5.31084 13.9971 5.32811 14.0044 5.33754 14.0093L5.33752 14.0094L5.33956 14.0103L7.75398 15.1222C7.75405 15.1222 7.75412 15.1223 7.75419 15.1223L7.75394 12.0337ZM7.92204 15.1862C7.92205 15.1862 7.92206 15.1863 7.92207 15.1863L7.9221 15.1863L7.93626 15.1383L7.92204 15.1862Z" fill="#113E48" stroke="#113E48" stroke-width="0.1"/>
<path d="M11.245 11.1552C11.2453 11.1554 11.2456 11.1557 11.246 11.156L11.214 11.1945C11.2484 11.2201 11.2763 11.2534 11.2954 11.2917C11.3145 11.33 11.3244 11.3723 11.3242 11.4152C11.3238 11.4549 11.3176 11.4944 11.3058 11.5324C11.2866 11.5908 11.2634 11.6478 11.2363 11.7031M11.245 11.1552C11.2851 11.1853 11.3177 11.2244 11.3401 11.2694C11.3628 11.3147 11.3744 11.3647 11.3742 11.4154L11.3742 11.4157C11.3737 11.4603 11.3668 11.5046 11.3536 11.5471L11.3533 11.548L11.3533 11.548C11.3335 11.6085 11.3094 11.6675 11.2814 11.7247M11.245 11.1552C11.1664 11.0903 11.0675 11.055 10.9656 11.0554L11.245 11.1552ZM11.2814 11.7247L11.2816 11.7242L11.2363 11.7031M11.2814 11.7247C11.2813 11.7248 11.2813 11.725 11.2812 11.7251L11.2363 11.7031M11.2814 11.7247L9.48529 15.5691M11.2363 11.7031L9.43943 15.5492M9.43943 15.5492L9.48579 15.5679C9.48563 15.5683 9.48546 15.5687 9.48529 15.5691M9.43943 15.5492C9.40246 15.6407 9.35074 15.7255 9.28631 15.8003L8.87108 15.782L8.83916 15.8205C8.83946 15.8207 8.83976 15.821 8.84006 15.8212C8.91901 15.8863 9.01841 15.9216 9.12078 15.9207C9.1584 15.9208 9.19567 15.9133 9.2303 15.8986C9.26506 15.8839 9.29643 15.8622 9.32249 15.8348L9.32254 15.8349L9.32419 15.833C9.39189 15.7544 9.4463 15.6653 9.48529 15.5691M9.43943 15.5492L9.48473 15.5703L9.48529 15.5691" fill="#113E48" stroke="#113E48" stroke-width="0.1"/>
<path d="M13.8385 13.5785L11.9363 12.6771C11.8436 12.6367 11.7597 12.5783 11.6897 12.5053L11.6878 12.5033L11.6879 12.5033C11.6344 12.4412 11.6055 12.3617 11.6066 12.2797C11.6066 12.2793 11.6066 12.2788 11.6066 12.2784L11.6566 12.2793L13.8385 13.5785ZM13.8385 13.5785L11.9403 14.4807M13.8385 13.5785L11.9403 14.4807M11.9421 11.9426C11.9844 11.9436 12.0264 11.9505 12.0668 11.9632L12.0675 11.9634L12.0675 11.9634C12.1305 11.9839 12.1922 12.0083 12.2523 12.0363L12.2524 12.0363L14.6797 13.1691L14.6854 13.1717L14.6852 13.1721L14.7067 13.1856C14.9344 13.2907 15.073 13.4231 15.073 13.5914C15.073 13.7592 14.9391 13.8883 14.7187 13.9872C14.7018 13.9975 14.6841 14.0063 14.6657 14.0136L12.2457 15.1248C12.1931 15.1506 12.1384 15.172 12.0823 15.1888L12.082 15.1889C12.0376 15.202 11.9915 15.2088 11.9452 15.2093M11.9421 11.9426L11.6102 14.8693C11.6102 14.8698 11.6101 14.8704 11.6101 14.871M11.9421 11.9426C11.9423 11.9426 11.9425 11.9426 11.9427 11.9426L11.9402 11.9925L11.9414 11.9425C11.9416 11.9426 11.9418 11.9426 11.9421 11.9426ZM11.9452 15.2093C11.9008 15.2114 11.8565 15.2043 11.815 15.1885C11.7732 15.1726 11.7351 15.1482 11.7032 15.1168L11.7019 15.1155L11.7019 15.1155C11.6709 15.0827 11.6468 15.044 11.6311 15.0017C11.6155 14.9599 11.6084 14.9155 11.6101 14.871M11.9452 15.2093C11.9455 15.2093 11.9459 15.2093 11.9463 15.2093L11.9437 15.1593L11.9442 15.2093C11.9445 15.2093 11.9449 15.2093 11.9452 15.2093ZM11.6101 14.871C11.6086 14.7906 11.6362 14.7123 11.6878 14.6506L11.6905 14.6474L11.6907 14.6476C11.7618 14.5757 11.8468 14.519 11.9403 14.4807M11.6101 14.871L11.9403 14.4807" fill="#113E48" stroke="#113E48" stroke-width="0.1"/>
</svg>
