<svg width="20" height="20" viewBox="0 0 20 20" fill="none" xmlns="http://www.w3.org/2000/svg">
<g clip-path="url(#clip0)">
<path d="M16.9452 4.15109L13.1787 0.587734C12.7781 0.208711 12.2537 0 11.7022 0H4.53125C3.3466 0 2.38281 0.963789 2.38281 2.14844V17.8516C2.38281 19.0362 3.3466 20 4.53125 20H15.4688C16.6534 20 17.6172 19.0362 17.6172 17.8516V5.7118C17.6172 5.12395 17.3723 4.55508 16.9452 4.15109ZM15.8071 4.6875H12.8906C12.7829 4.6875 12.6953 4.59988 12.6953 4.49219V1.74359L15.8071 4.6875ZM15.4688 18.8281H4.53125C3.99277 18.8281 3.55469 18.39 3.55469 17.8516V2.14844C3.55469 1.60996 3.99277 1.17188 4.53125 1.17188H11.5234V4.49219C11.5234 5.24605 12.1368 5.85938 12.8906 5.85938H16.4453V17.8516C16.4453 18.39 16.0072 18.8281 15.4688 18.8281Z" fill="#8F8F8F"/>
</g>
<defs>
<clipPath id="clip0">
<rect width="20" height="20" fill="white"/>
</clipPath>
</defs>
</svg>
