<svg width="20" height="20" viewBox="0 0 20 20" fill="none" xmlns="http://www.w3.org/2000/svg">
<path d="M19.4141 1.88286H13.138C11.8215 1.88286 10.6624 2.56954 10 3.60356C9.33762 2.56954 8.17848 1.88286 6.86199 1.88286H0.585938C0.262344 1.88286 0 2.1452 0 2.4688V4.35161V14.3932V17.5313C0 17.8549 0.262344 18.1172 0.585938 18.1172H19.4141C19.7377 18.1172 20 17.8549 20 17.5313V14.3933V4.35161V2.4688C20 2.1452 19.7377 1.88286 19.4141 1.88286ZM1.17188 16.9454V14.9792H6.86199C8.06754 14.9792 9.0798 15.8198 9.34539 16.9454H1.17188ZM9.41406 14.8217C8.74703 14.1931 7.84871 13.8073 6.86199 13.8073H1.17188V4.35161V3.05473H6.86199C8.26918 3.05473 9.41406 4.19958 9.41406 5.6068V14.8217ZM18.8281 16.9454H10.6546C10.9202 15.8198 11.9325 14.9792 13.138 14.9792H18.8281V16.9454ZM18.8281 4.35161V13.8073H13.138C12.1513 13.8073 11.253 14.1931 10.5859 14.8217V5.6068C10.5859 4.19958 11.7308 3.05473 13.138 3.05473H18.8281V4.35161Z" fill="#113E48"/>
</svg>
