<svg width="20" height="20" viewBox="0 0 20 20" fill="none" xmlns="http://www.w3.org/2000/svg">
<g clip-path="url(#clip0)">
<path d="M19.2568 0H0.820191C0.388672 0 0.0389404 0.349732 0.0389404 0.78125C0.0389404 2.95685 0.971558 5.03388 2.59769 6.47934L6.01917 9.52042C6.61243 10.0478 6.9527 10.8055 6.9527 11.5994V19.2178C6.9527 19.8404 7.6485 20.2136 8.16715 19.8677L12.7764 16.795C12.9937 16.6501 13.1243 16.4063 13.1243 16.145V11.5994C13.1243 10.8055 13.4645 10.0478 14.0578 9.52042L17.4791 6.47934C19.1053 5.03388 20.0379 2.95685 20.0379 0.78125C20.0379 0.349732 19.6881 0 19.2568 0ZM16.4411 5.31143L13.0197 8.35266C12.0932 9.17633 11.5618 10.3597 11.5618 11.5993V15.7269L8.51505 17.758V11.5994C8.51505 10.3597 7.98358 9.17633 7.05707 8.35266L3.63574 5.31159C2.53925 4.3367 1.83933 3.00095 1.65195 1.56235H18.4249C18.2375 3.00095 17.5377 4.3367 16.4411 5.31143Z" fill="#113E48"/>
</g>
<defs>
<clipPath id="clip0">
<rect width="20" height="20" fill="white"/>
</clipPath>
</defs>
</svg>
