<svg width="20" height="20" viewBox="0 0 20 20" fill="none" xmlns="http://www.w3.org/2000/svg">
<path d="M18.1589 1.8828H1.84113C0.845586 1.8828 0 2.68585 0 3.72393V16.276C0 17.3142 0.845508 18.1172 1.84113 18.1172H18.1588C19.1544 18.1172 20 17.3141 20 16.276V3.72393C20 2.68581 19.1545 1.8828 18.1589 1.8828ZM1.17188 3.72393C1.17188 3.34991 1.47508 3.05468 1.84113 3.05468H18.1588C18.5247 3.05468 18.8281 3.34968 18.8281 3.72393V11.0958L16.0627 8.33042C15.9529 8.22054 15.8038 8.15878 15.6484 8.15878C15.493 8.15878 15.344 8.2205 15.2341 8.33042L10.6276 12.937L8.53148 10.8409C8.3027 10.6121 7.93168 10.6121 7.70285 10.8409L1.63223 16.9115C1.36676 16.8243 1.17188 16.5758 1.17188 16.276V3.72393ZM18.1589 16.9453H3.2557L8.11719 12.0839L10.2133 14.18C10.4421 14.4087 10.8131 14.4087 11.042 14.18L15.6484 9.57339L18.8281 12.7531V16.276C18.8281 16.6501 18.5249 16.9453 18.1589 16.9453Z" fill="#113E48"/>
</svg>
