<svg width="20" height="20" viewBox="0 0 20 20" fill="none" xmlns="http://www.w3.org/2000/svg">
<g clip-path="url(#clip0)">
<path d="M16.9452 4.15109L13.1787 0.587734C12.7781 0.208711 12.2537 0 11.7022 0H4.53125C3.3466 0 2.38281 0.963789 2.38281 2.14844V17.8516C2.38281 19.0362 3.3466 20 4.53125 20H15.4688C16.6534 20 17.6172 19.0362 17.6172 17.8516V5.7118C17.6172 5.12395 17.3723 4.55508 16.9452 4.15109ZM15.8071 4.6875H12.8906C12.7829 4.6875 12.6953 4.59988 12.6953 4.49219V1.74359L15.8071 4.6875ZM15.4688 18.8281H4.53125C3.99277 18.8281 3.55469 18.39 3.55469 17.8516V2.14844C3.55469 1.60996 3.99277 1.17188 4.53125 1.17188H11.5234V4.49219C11.5234 5.24605 12.1368 5.85938 12.8906 5.85938H16.4453V17.8516C16.4453 18.39 16.0072 18.8281 15.4688 18.8281Z" fill="#113E48"/>
<path d="M8.12461 11.2679C8.07641 11.1879 8.00617 11.148 7.91391 11.148H5.31343C5.22108 11.148 5.15089 11.188 5.10272 11.2679C5.05456 11.3479 5.03046 11.4424 5.03046 11.5515C5.03046 11.6685 5.0555 11.7669 5.10573 11.8468C5.15589 11.9268 5.22507 11.9666 5.31343 11.9666H6.14413V15.2574C6.14413 15.3503 6.19023 15.4221 6.28257 15.4726C6.37484 15.5231 6.48519 15.5483 6.61367 15.5483C6.74203 15.5483 6.85238 15.5231 6.94476 15.4726C7.03703 15.4221 7.0832 15.3503 7.0832 15.2574V11.9666H7.91391C8.00211 11.9666 8.07133 11.9267 8.12156 11.8468C8.17172 11.7668 8.19684 11.6685 8.19684 11.5515C8.19684 11.4424 8.17277 11.3479 8.12461 11.2679Z" fill="#113E48"/>
<path d="M11.6941 14.9524L10.6528 13.3451L11.652 11.7439C11.6921 11.6797 11.7122 11.6175 11.7122 11.5573C11.7122 11.4369 11.646 11.3326 11.5136 11.2443C11.3812 11.1561 11.2447 11.1119 11.1043 11.1119C10.9719 11.1119 10.8775 11.1641 10.8213 11.2684L10.0208 12.665L9.22017 11.2684C9.16391 11.1641 9.06966 11.1119 8.93723 11.1119C8.79673 11.1119 8.66036 11.1561 8.5279 11.2443C8.39547 11.3326 8.32922 11.437 8.32922 11.5573C8.32922 11.6176 8.34926 11.6798 8.38946 11.744L9.38868 13.3452L8.34727 14.9524C8.31114 15.0126 8.29309 15.0688 8.29309 15.1209C8.29309 15.2413 8.36235 15.3487 8.50079 15.443C8.63923 15.5373 8.7786 15.5844 8.91915 15.5844C9.02747 15.5844 9.10173 15.5522 9.14188 15.4881L10.0208 13.9953L10.8996 15.4881C10.9358 15.5523 11.0099 15.5844 11.1224 15.5844C11.2628 15.5844 11.4022 15.5373 11.5407 15.443C11.6792 15.3488 11.7484 15.2413 11.7484 15.1209C11.7483 15.0688 11.7303 15.0126 11.6941 14.9524Z" fill="#113E48"/>
<path d="M14.9388 11.2679C14.8906 11.1879 14.8203 11.148 14.7281 11.148H12.1276C12.0352 11.148 11.965 11.188 11.9169 11.2679C11.8687 11.3479 11.8446 11.4424 11.8446 11.5515C11.8446 11.6685 11.8696 11.7669 11.9199 11.8468C11.97 11.9268 12.0392 11.9666 12.1276 11.9666H12.9583V15.2574C12.9583 15.3503 13.0044 15.4221 13.0967 15.4726C13.1889 15.5231 13.2993 15.5483 13.4278 15.5483C13.5562 15.5483 13.6665 15.5231 13.7589 15.4726C13.8511 15.4221 13.8973 15.3503 13.8973 15.2574V11.9666H14.7281C14.8163 11.9666 14.8855 11.9267 14.9357 11.8468C14.9859 11.7668 15.011 11.6685 15.011 11.5515C15.011 11.4424 14.9869 11.3479 14.9388 11.2679Z" fill="#113E48"/>
</g>
<defs>
<clipPath id="clip0">
<rect width="20" height="20" fill="white"/>
</clipPath>
</defs>
</svg>
