<svg width="20" height="20" viewBox="0 0 20 20" fill="none" xmlns="http://www.w3.org/2000/svg">
<g clip-path="url(#clip0)">
<path d="M18.159 1.8828H1.84102C1.35275 1.8828 0.884478 2.07676 0.539221 2.42202C0.193964 2.76728 0 3.23555 0 3.72381L0 16.2762C0 16.7644 0.193964 17.2327 0.539221 17.578C0.884478 17.9232 1.35275 18.1172 1.84102 18.1172H18.159C18.6473 18.1172 19.1155 17.9232 19.4608 17.578C19.806 17.2327 20 16.7644 20 16.2762V3.72381C20 3.23555 19.806 2.76728 19.4608 2.42202C19.1155 2.07676 18.6473 1.8828 18.159 1.8828ZM18.8281 16.2762C18.8282 16.364 18.8109 16.4511 18.7773 16.5323C18.7437 16.6135 18.6944 16.6873 18.6323 16.7494C18.5701 16.8116 18.4963 16.8609 18.4151 16.8945C18.3339 16.9281 18.2469 16.9453 18.159 16.9453L1.63203 16.9113C1.49812 16.8675 1.38149 16.7825 1.29884 16.6684C1.21619 16.5544 1.17174 16.417 1.17188 16.2762V3.72381C1.17182 3.63593 1.1891 3.54889 1.22271 3.46768C1.25631 3.38648 1.3056 3.31269 1.36775 3.25054C1.42989 3.1884 1.50368 3.13911 1.58489 3.1055C1.66609 3.07189 1.75313 3.05462 1.84102 3.05467H18.159C18.2469 3.05462 18.3339 3.07189 18.4151 3.1055C18.4963 3.13911 18.5701 3.1884 18.6323 3.25054C18.6944 3.31269 18.7437 3.38648 18.7773 3.46768C18.8109 3.54889 18.8282 3.63593 18.8281 3.72381V16.2762Z" fill="#113E48"/>
<path d="M13.0676 9.30894L8.64887 6.89137C8.52529 6.82379 8.38625 6.78953 8.24542 6.79196C8.10459 6.79439 7.96681 6.83342 7.84563 6.90522C7.72446 6.97702 7.62405 7.07912 7.55428 7.20147C7.48451 7.32383 7.44778 7.46223 7.4477 7.60309V12.3968C7.44737 12.5373 7.48359 12.6755 7.55279 12.7978C7.62199 12.9201 7.7218 13.0224 7.84242 13.0944C7.96304 13.1665 8.10034 13.206 8.24083 13.209C8.38132 13.2121 8.52018 13.1785 8.64379 13.1117L13.0625 10.7355C13.1912 10.6663 13.2989 10.5637 13.3741 10.4384C13.4493 10.3131 13.4893 10.1699 13.4898 10.0237C13.4903 9.87761 13.4514 9.73407 13.377 9.60825C13.3027 9.48244 13.1958 9.37903 13.0676 9.30894ZM8.61996 11.7937V8.21129L11.9223 10.0179L8.61996 11.7937Z" fill="#113E48"/>
</g>
<defs>
<clipPath id="clip0">
<rect width="20" height="20" fill="white"/>
</clipPath>
</defs>
</svg>
